<svg width="17" height="17" viewBox="0 0 17 17" fill="none" xmlns="http://www.w3.org/2000/svg">
<path d="M9.47627 16.3513L16.3513 9.47626C16.4765 9.34549 16.5746 9.19129 16.64 9.02251C16.7775 8.68775 16.7775 8.31227 16.64 7.97751C16.5746 7.80873 16.4765 7.65453 16.3513 7.52376L9.47627 0.648761C9.34807 0.520558 9.19587 0.418862 9.02836 0.349479C8.86086 0.280096 8.68133 0.244384 8.50002 0.244384C8.13386 0.244384 7.78269 0.389843 7.52377 0.64876C7.26485 0.907678 7.11939 1.25885 7.11939 1.62501C7.11939 1.99118 7.26485 2.34234 7.52377 2.60126L12.0613 7.12501L1.62502 7.12501C1.26035 7.12501 0.91061 7.26988 0.652748 7.52774C0.394886 7.7856 0.250021 8.13534 0.250021 8.50001C0.250021 8.86468 0.394886 9.21442 0.652748 9.47228C0.91061 9.73014 1.26035 9.87501 1.62502 9.87501L12.0613 9.87501L7.52377 14.3988C7.39489 14.5266 7.2926 14.6787 7.22279 14.8462C7.15299 15.0138 7.11705 15.1935 7.11705 15.375C7.11705 15.5565 7.15299 15.7362 7.22279 15.9038C7.2926 16.0714 7.39489 16.2234 7.52377 16.3513C7.65159 16.4801 7.80367 16.5824 7.97123 16.6522C8.13878 16.722 8.3185 16.758 8.50002 16.758C8.68154 16.758 8.86126 16.722 9.02881 16.6522C9.19637 16.5824 9.34845 16.4801 9.47627 16.3513Z" fill="black"/>
</svg>
