<svg width="200" height="59" viewBox="0 0 200 59" fill="none" xmlns="http://www.w3.org/2000/svg">
<g clip-path="url(#clip0_1_2)">
<path d="M200 0.5H0V58.5H200V0.5Z" fill="#98FAEA"/>
<path d="M11.2955 43.1831H10.3691V43.9432H11.2955V43.1831Z" fill="#EB4D3D"/>
<path d="M12.5973 43.1831H11.6709V43.9432H12.5973V43.1831Z" fill="#EB4D3D"/>
<path d="M13.8989 43.1831H12.9725V43.9432H13.8989V43.1831Z" fill="#EB4D3D"/>
<path d="M15.2007 43.1831H14.2743V43.9432H15.2007V43.1831Z" fill="#EB4D3D"/>
<path d="M16.5024 43.1831H15.576V43.9432H16.5024V43.1831Z" fill="#EB4D3D"/>
<path d="M17.8041 43.1831H16.8777V43.9432H17.8041V43.1831Z" fill="#EB4D3D"/>
<path d="M19.1058 43.1831H18.1794V43.9432H19.1058V43.1831Z" fill="#EB4D3D"/>
<path d="M20.4076 43.1831H19.4812V43.9432H20.4076V43.1831Z" fill="#EB4D3D"/>
<path d="M21.7092 43.1831H20.7828V43.9432H21.7092V43.1831Z" fill="#EB4D3D"/>
<path d="M23.011 43.1831H22.0846V43.9432H23.011V43.1831Z" fill="#EB4D3D"/>
<path d="M24.3127 43.1831H23.3864V43.9432H24.3127V43.1831Z" fill="#EB4D3D"/>
<path d="M25.6144 43.1831H24.688V43.9432H25.6144V43.1831Z" fill="#EB4D3D"/>
<path d="M26.9161 43.1831H25.9897V43.9432H26.9161V43.1831Z" fill="#EB4D3D"/>
<path d="M28.2179 43.1831H27.2915V43.9432H28.2179V43.1831Z" fill="#EB4D3D"/>
<path d="M29.5195 43.1831H28.5931V43.9432H29.5195V43.1831Z" fill="#EB4D3D"/>
<path d="M30.8213 43.1831H29.8949V43.9432H30.8213V43.1831Z" fill="#EB4D3D"/>
<path d="M32.123 43.1831H31.1967V43.9432H32.123V43.1831Z" fill="#EB4D3D"/>
<path d="M33.4247 43.1831H32.4983V43.9432H33.4247V43.1831Z" fill="#EB4D3D"/>
<path d="M34.7264 43.1831H33.8V43.9432H34.7264V43.1831Z" fill="#EB4D3D"/>
<path d="M36.0282 43.1831H35.1018V43.9432H36.0282V43.1831Z" fill="#EB4D3D"/>
<path d="M37.3298 43.1831H36.4034V43.9432H37.3298V43.1831Z" fill="#EB4D3D"/>
<path d="M38.6316 43.1831H37.7052V43.9432H38.6316V43.1831Z" fill="#EB4D3D"/>
<path d="M39.9333 43.1831H39.007V43.9432H39.9333V43.1831Z" fill="#EB4D3D"/>
<path d="M41.235 43.1831H40.3086V43.9432H41.235V43.1831Z" fill="#EB4D3D"/>
<path d="M42.5367 43.1831H41.6104V43.9432H42.5367V43.1831Z" fill="#EB4D3D"/>
<path d="M43.8385 43.1831H42.9121V43.9432H43.8385V43.1831Z" fill="#EB4D3D"/>
<path d="M45.1402 43.1831H44.2137V43.9432H45.1402V43.1831Z" fill="#EB4D3D"/>
<path d="M46.4419 43.1831H45.5155V43.9432H46.4419V43.1831Z" fill="#EB4D3D"/>
<path d="M47.7436 43.1831H46.8173V43.9432H47.7436V43.1831Z" fill="#EB4D3D"/>
<path d="M49.0453 43.1831H48.1189V43.9432H49.0453V43.1831Z" fill="#EB4D3D"/>
<path d="M50.347 43.1831H49.4207V43.9432H50.347V43.1831Z" fill="#EB4D3D"/>
<path d="M51.6488 43.1831H50.7224V43.9432H51.6488V43.1831Z" fill="#EB4D3D"/>
<path d="M52.9505 43.1831H52.024V43.9432H52.9505V43.1831Z" fill="#EB4D3D"/>
<path d="M54.2522 43.1831H53.3258V43.9432H54.2522V43.1831Z" fill="#EB4D3D"/>
<path d="M55.5539 43.1831H54.6276V43.9432H55.5539V43.1831Z" fill="#EB4D3D"/>
<path d="M56.8556 43.1831H55.9292V43.9432H56.8556V43.1831Z" fill="#EB4D3D"/>
<path d="M58.1573 43.1831H57.231V43.9432H58.1573V43.1831Z" fill="#EB4D3D"/>
<path d="M59.4591 43.1831H58.5327V43.9432H59.4591V43.1831Z" fill="#EB4D3D"/>
<path d="M60.7608 43.1831H59.8344V43.9432H60.7608V43.1831Z" fill="#EB4D3D"/>
<path d="M62.0625 43.1831H61.1361V43.9432H62.0625V43.1831Z" fill="#EB4D3D"/>
<path d="M63.3642 43.1831H62.4379V43.9432H63.3642V43.1831Z" fill="#EB4D3D"/>
<path d="M64.6659 43.1831H63.7395V43.9432H64.6659V43.1831Z" fill="#EB4D3D"/>
<path d="M65.9676 43.1831H65.0413V43.9432H65.9676V43.1831Z" fill="#EB4D3D"/>
<path d="M67.2694 43.1831H66.343V43.9432H67.2694V43.1831Z" fill="#EB4D3D"/>
<path d="M68.5711 43.1831H67.6447V43.9432H68.5711V43.1831Z" fill="#EB4D3D"/>
<path d="M69.8728 43.1831H68.9464V43.9432H69.8728V43.1831Z" fill="#EB4D3D"/>
<path d="M71.1745 43.1831H70.2482V43.9432H71.1745V43.1831Z" fill="#EB4D3D"/>
<path d="M72.4762 43.1831H71.5498V43.9432H72.4762V43.1831Z" fill="#EB4D3D"/>
<path d="M73.7779 43.1831H72.8516V43.9432H73.7779V43.1831Z" fill="#EB4D3D"/>
<path d="M75.0797 43.1831H74.1533V43.9432H75.0797V43.1831Z" fill="#EB4D3D"/>
<path d="M76.3814 43.1831H75.455V43.9432H76.3814V43.1831Z" fill="#EB4D3D"/>
<path d="M77.6831 43.1831H76.7567V43.9432H77.6831V43.1831Z" fill="#EB4D3D"/>
<path d="M78.9848 43.1831H78.0585V43.9432H78.9848V43.1831Z" fill="#EB4D3D"/>
<path d="M80.2865 43.1831H79.3601V43.9432H80.2865V43.1831Z" fill="#EB4D3D"/>
<path d="M81.5882 43.1831H80.6619V43.9432H81.5882V43.1831Z" fill="#EB4D3D"/>
<path d="M82.89 43.1831H81.9636V43.9432H82.89V43.1831Z" fill="#EB4D3D"/>
<path d="M84.1918 43.1831H83.2654V43.9432H84.1918V43.1831Z" fill="#EB4D3D"/>
<path d="M85.4934 43.1831H84.567V43.9432H85.4934V43.1831Z" fill="#EB4D3D"/>
<path d="M86.7951 43.1831H85.8688V43.9432H86.7951V43.1831Z" fill="#EB4D3D"/>
<path d="M88.0968 43.1831H87.1704V43.9432H88.0968V43.1831Z" fill="#EB4D3D"/>
<path d="M89.3985 43.1831H88.4722V43.9432H89.3985V43.1831Z" fill="#EB4D3D"/>
<path d="M90.7003 43.1831H89.7739V43.9432H90.7003V43.1831Z" fill="#EB4D3D"/>
<path d="M92.0021 43.1831H91.0757V43.9432H92.0021V43.1831Z" fill="#EB4D3D"/>
<path d="M93.3037 43.1831H92.3773V43.9432H93.3037V43.1831Z" fill="#EB4D3D"/>
<path d="M94.6054 43.1831H93.6791V43.9432H94.6054V43.1831Z" fill="#EB4D3D"/>
<path d="M95.9071 43.1831H94.9807V43.9432H95.9071V43.1831Z" fill="#EB4D3D"/>
<path d="M97.2088 43.1831H96.2825V43.9432H97.2088V43.1831Z" fill="#EB4D3D"/>
<path d="M98.5106 43.1831H97.5842V43.9432H98.5106V43.1831Z" fill="#EB4D3D"/>
<path d="M99.8124 43.1831H98.886V43.9432H99.8124V43.1831Z" fill="#EB4D3D"/>
<path d="M101.114 43.1831H100.188V43.9432H101.114V43.1831Z" fill="#EB4D3D"/>
<path d="M102.416 43.1831H101.489V43.9432H102.416V43.1831Z" fill="#EB4D3D"/>
<path d="M103.718 43.1831H102.791V43.9432H103.718V43.1831Z" fill="#EB4D3D"/>
<path d="M105.019 43.1831H104.093V43.9432H105.019V43.1831Z" fill="#EB4D3D"/>
<path d="M106.321 43.1831H105.395V43.9432H106.321V43.1831Z" fill="#EB4D3D"/>
<path d="M107.623 43.1831H106.696V43.9432H107.623V43.1831Z" fill="#EB4D3D"/>
<path d="M108.924 43.1831H107.998V43.9432H108.924V43.1831Z" fill="#EB4D3D"/>
<path d="M110.226 43.1831H109.3V43.9432H110.226V43.1831Z" fill="#EB4D3D"/>
<path d="M111.528 43.1831H110.601V43.9432H111.528V43.1831Z" fill="#EB4D3D"/>
<path d="M112.829 43.1831H111.903V43.9432H112.829V43.1831Z" fill="#EB4D3D"/>
<path d="M114.131 43.1831H113.205V43.9432H114.131V43.1831Z" fill="#EB4D3D"/>
<path d="M115.433 43.1831H114.507V43.9432H115.433V43.1831Z" fill="#EB4D3D"/>
<path d="M116.735 43.1831H115.808V43.9432H116.735V43.1831Z" fill="#EB4D3D"/>
<path d="M118.036 43.1831H117.11V43.9432H118.036V43.1831Z" fill="#EB4D3D"/>
<path d="M119.338 43.1831H118.412V43.9432H119.338V43.1831Z" fill="#EB4D3D"/>
<path d="M120.64 43.1831H119.713V43.9432H120.64V43.1831Z" fill="#EB4D3D"/>
<path d="M121.941 43.1831H121.015V43.9432H121.941V43.1831Z" fill="#EB4D3D"/>
<path d="M123.243 43.1831H122.317V43.9432H123.243V43.1831Z" fill="#EB4D3D"/>
<path d="M124.545 43.1831H123.619V43.9432H124.545V43.1831Z" fill="#EB4D3D"/>
<path d="M125.847 43.1831H124.92V43.9432H125.847V43.1831Z" fill="#EB4D3D"/>
<path d="M127.148 43.1831H126.222V43.9432H127.148V43.1831Z" fill="#EB4D3D"/>
<path d="M128.45 43.1831H127.524V43.9432H128.45V43.1831Z" fill="#EB4D3D"/>
<path d="M129.752 43.1831H128.825V43.9432H129.752V43.1831Z" fill="#EB4D3D"/>
<path d="M131.054 43.1831H130.127V43.9432H131.054V43.1831Z" fill="#EB4D3D"/>
<path d="M132.355 43.1831H131.429V43.9432H132.355V43.1831Z" fill="#EB4D3D"/>
<path d="M133.657 43.1831H132.731V43.9432H133.657V43.1831Z" fill="#EB4D3D"/>
<path d="M134.959 43.1831H134.032V43.9432H134.959V43.1831Z" fill="#EB4D3D"/>
<path d="M136.26 43.1831H135.334V43.9432H136.26V43.1831Z" fill="#EB4D3D"/>
<path d="M137.562 43.1831H136.636V43.9432H137.562V43.1831Z" fill="#EB4D3D"/>
<path d="M138.864 43.1831H137.938V43.9432H138.864V43.1831Z" fill="#EB4D3D"/>
<path d="M140.166 43.1831H139.239V43.9432H140.166V43.1831Z" fill="#EB4D3D"/>
<path d="M141.467 43.1831H140.541V43.9432H141.467V43.1831Z" fill="#EB4D3D"/>
<path d="M142.769 43.1831H141.843V43.9432H142.769V43.1831Z" fill="#EB4D3D"/>
<path d="M144.071 43.1831H143.144V43.9432H144.071V43.1831Z" fill="#EB4D3D"/>
<path d="M145.372 43.1831H144.446V43.9432H145.372V43.1831Z" fill="#EB4D3D"/>
<path d="M146.674 43.1831H145.748V43.9432H146.674V43.1831Z" fill="#EB4D3D"/>
<path d="M147.976 43.1831H147.049V43.9432H147.976V43.1831Z" fill="#EB4D3D"/>
<path d="M149.278 43.1831H148.351V43.9432H149.278V43.1831Z" fill="#EB4D3D"/>
<path d="M150.579 43.1831H149.653V43.9432H150.579V43.1831Z" fill="#EB4D3D"/>
<path d="M151.881 43.1831H150.955V43.9432H151.881V43.1831Z" fill="#EB4D3D"/>
<path d="M153.183 43.1831H152.256V43.9432H153.183V43.1831Z" fill="#EB4D3D"/>
<path d="M154.485 43.1831H153.558V43.9432H154.485V43.1831Z" fill="#EB4D3D"/>
<path d="M155.786 43.1831H154.86V43.9432H155.786V43.1831Z" fill="#EB4D3D"/>
<path d="M157.088 43.1831H156.161V43.9432H157.088V43.1831Z" fill="#EB4D3D"/>
<path d="M158.39 43.1831H157.463V43.9432H158.39V43.1831Z" fill="#EB4D3D"/>
<path d="M159.691 43.1831H158.765V43.9432H159.691V43.1831Z" fill="#EB4D3D"/>
<path d="M160.993 43.1831H160.067V43.9432H160.993V43.1831Z" fill="#EB4D3D"/>
<path d="M162.295 43.1831H161.368V43.9432H162.295V43.1831Z" fill="#EB4D3D"/>
<path d="M163.596 43.1831H162.67V43.9432H163.596V43.1831Z" fill="#EB4D3D"/>
<path d="M164.898 43.1831H163.972V43.9432H164.898V43.1831Z" fill="#EB4D3D"/>
<path d="M166.2 43.1831H165.274V43.9432H166.2V43.1831Z" fill="#EB4D3D"/>
<path d="M167.502 43.1831H166.575V43.9432H167.502V43.1831Z" fill="#EB4D3D"/>
<path d="M168.803 43.1831H167.877V43.9432H168.803V43.1831Z" fill="#EB4D3D"/>
<path d="M170.105 43.1831H169.179V43.9432H170.105V43.1831Z" fill="#EB4D3D"/>
<path d="M171.407 43.1831H170.48V43.9432H171.407V43.1831Z" fill="#EB4D3D"/>
<path d="M172.708 43.1831H171.782V43.9432H172.708V43.1831Z" fill="#EB4D3D"/>
<path d="M174.01 43.1831H173.084V43.9432H174.01V43.1831Z" fill="#EB4D3D"/>
<path d="M175.312 43.1831H174.385V43.9432H175.312V43.1831Z" fill="#EB4D3D"/>
<path d="M176.614 43.1831H175.687V43.9432H176.614V43.1831Z" fill="#EB4D3D"/>
<path d="M177.915 43.1831H176.989V43.9432H177.915V43.1831Z" fill="#EB4D3D"/>
<path d="M179.217 43.1831H178.291V43.9432H179.217V43.1831Z" fill="#EB4D3D"/>
<path d="M180.519 43.1831H179.592V43.9432H180.519V43.1831Z" fill="#EB4D3D"/>
<path d="M181.821 43.1831H180.894V43.9432H181.821V43.1831Z" fill="#EB4D3D"/>
<path d="M183.122 43.1831H182.196V43.9432H183.122V43.1831Z" fill="#EB4D3D"/>
<path d="M184.424 43.1831H183.498V43.9432H184.424V43.1831Z" fill="#EB4D3D"/>
<path d="M185.726 43.1831H184.799V43.9432H185.726V43.1831Z" fill="#EB4D3D"/>
<path d="M187.027 43.1831H186.101V43.9432H187.027V43.1831Z" fill="#EB4D3D"/>
<path d="M188.329 43.1831H187.403V43.9432H188.329V43.1831Z" fill="#EB4D3D"/>
<path d="M189.631 43.1831H188.704V43.9432H189.631V43.1831Z" fill="#EB4D3D"/>
<path d="M151.264 28.5677C152.607 28.1768 153.72 27.4889 154.579 26.5153C155.64 25.3139 156.178 23.8458 156.178 22.152C156.178 20.9528 155.922 19.9167 155.416 19.0723C154.914 18.2357 154.305 17.5839 153.606 17.1347C152.913 16.6906 151.153 15.7155 147.902 15.7155C147.093 15.7155 146.054 15.6588 144.811 15.6588H133.122L127.335 43.0179H140.948C144.015 43.0179 146.322 42.838 147.806 42.4835C149.898 41.9944 151.616 40.9289 152.911 39.3164C154.206 37.7044 154.862 35.9044 154.862 33.9663C154.862 31.3739 153.653 29.5618 151.264 28.5677ZM146.711 36.1365C145.836 37.2994 144.586 37.8576 140.86 37.8576H135.508L136.996 31.0907H143.164C143.332 31.0907 143.759 31.0907 144.369 31.0907C146.336 31.0907 146.927 32.3734 147.047 32.713C147.175 33.0814 147.241 33.5157 147.241 34.0039C147.241 34.8684 147.104 35.6145 146.711 36.1365ZM147.912 24.9385C147.646 25.4144 147.262 25.7511 146.737 25.9679C146.183 26.1976 145.627 26.3568 145.085 26.4413C144.539 26.5267 143.879 26.57 143.125 26.57H137.965L139.224 20.7815H143.855C144.432 20.7815 144.854 20.8 145.11 20.8C147.241 20.8 147.81 21.6603 148.019 21.9788C148.216 22.2795 148.316 22.6668 148.316 23.1302C148.316 23.8505 148.18 24.459 147.912 24.9385Z" fill="black"/>
<path d="M37.5406 15.6588H11.6497L10.3691 21.0825H19.2761L14.5697 43.0179H22.1079L27.049 21.0825H36.2601L37.5406 15.6588Z" fill="black"/>
<path d="M90.0807 18.2564C87.9138 16.1333 84.863 15.0568 81.0131 15.0568C77.7104 15.0568 74.8271 15.8629 72.4432 17.4529C70.048 19.0509 68.4085 21.2868 67.57 24.0986L67.4596 24.4687H74.3367L74.4094 24.3025C75.5667 21.6547 77.5966 20.3676 80.6148 20.3676C82.416 20.3676 83.8523 20.9156 84.8835 21.996C85.8657 23.0262 86.435 24.488 86.5775 26.3443H76.6956L75.5315 31.5047H85.9397C85.336 33.4171 84.3808 35.0283 83.0969 36.2985C81.7479 37.6326 80.0283 38.3091 77.986 38.3091C76.1769 38.3091 74.8301 37.9151 73.9827 37.1379C73.1419 36.3672 72.6773 35.131 72.6017 33.4636L72.5894 33.1921H66.0441V34.0415C66.0441 36.9298 67.1174 39.2836 69.2341 41.0376C71.3307 42.7761 74.1413 43.6576 77.5877 43.6576C82.3702 43.6576 86.236 42.0449 89.0778 38.8643C91.9148 35.6889 93.3533 31.7497 93.3533 27.1561C93.3533 23.3795 92.2522 20.3853 90.0807 18.2564Z" fill="black"/>
<path d="M103.996 15.6588L100.175 31.4965C99.6074 33.9483 98.8163 35.2231 98.0917 36.0379C97.3812 36.8363 95.5575 37.4869 93.5187 36.9669L93.2412 36.9117L91.9856 42.7126C91.9856 42.7126 95.0024 43.0179 96.2333 43.0179C99.6845 43.0179 101.479 42.0436 103.23 40.3957C104.966 38.7612 106.343 36.5079 107.322 32.3846L109.96 21.0825H117.761L112.825 43.0179H120.62L126.45 15.6588L103.996 15.6588Z" fill="black"/>
<path d="M59.3776 28.5677C60.7215 28.1768 61.8338 27.4889 62.6931 26.5153C63.7541 25.3139 64.2921 23.8458 64.2921 22.152C64.2921 20.9528 64.0359 19.9167 63.5303 19.0723C63.0284 18.2357 62.4194 17.5839 61.72 17.1347C61.027 16.6906 59.2666 15.7155 56.0155 15.7155C55.2072 15.7155 54.1681 15.6588 52.9247 15.6588H41.2356L35.4489 43.0179H49.0624C52.1285 43.0179 54.4362 42.838 55.9202 42.4835C58.0125 41.9944 59.73 40.9289 61.0252 39.3164C62.3199 37.7044 62.9763 35.9044 62.9763 33.9663C62.9763 31.3739 61.7669 29.5618 59.3776 28.5677ZM54.8254 36.1365C53.9499 37.2994 52.6999 37.8576 48.9735 37.8576H43.6224L45.1099 31.0907H51.2775C51.4464 31.0907 51.8734 31.0907 52.4833 31.0907C54.4499 31.0907 55.0412 32.3734 55.1606 32.713C55.2893 33.0814 55.3547 33.5157 55.3547 34.0039C55.3547 34.8684 55.2184 35.6145 54.8254 36.1365ZM56.0264 24.9385C55.7602 25.4144 55.376 25.7511 54.8513 25.9679C54.2972 26.1976 53.7412 26.3568 53.1986 26.4413C52.6525 26.5267 51.9932 26.57 51.2391 26.57H46.0792L47.3376 20.7815H51.9687C52.5463 20.7815 52.9684 20.8 53.2237 20.8C55.3547 20.8 55.9239 21.6603 56.133 21.9788C56.33 22.2795 56.4299 22.6668 56.4299 23.1302C56.4299 23.8505 56.2941 24.459 56.0264 24.9385Z" fill="black"/>
<path d="M180.98 15.6588L166.668 33.5717L170.514 15.6588H163.373L157.465 43.0179H165.775L180.083 25.0723L176.198 43.0179H183.339L189.248 15.6588H180.98Z" fill="black"/>
</g>
<defs>
<clipPath id="clip0_1_2">
<rect width="200" height="58" fill="white" transform="translate(0 0.5)"/>
</clipPath>
</defs>
</svg>
